<svg xmlns="http://www.w3.org/2000/svg" width="82" height="82" fill="none"><g clip-path="url(#clip0)"><path fill="#FFCBB9" d="M61.692 4.725c-11.075 0-20.053 5.854-20.053 17.148s8.978 20.448 20.053 20.448c11.074 0 20.05-9.154 20.05-20.448S72.767 4.725 61.693 4.725z"/><path fill="#FFC3AE" d="M45.599 21.873c0-10.613 7.927-19.336 18.073-20.349-.652-.066-1.312-.1-1.98-.1-11.075 0-20.053 9.155-20.053 20.45 0 11.293 8.978 20.447 20.053 20.447.668 0 1.328-.033 1.98-.099-10.146-1.014-18.073-9.737-18.073-20.349z"/><path fill="#FFCBB9" d="M72.38 26.16a1.237 1.237 0 01-1.237-1.237v-2.078a1.237 1.237 0 112.475 0v2.078c0 .684-.554 1.238-1.238 1.238zM73.795 29.215h-2.83a1.237 1.237 0 010-2.474h2.83a1.237 1.237 0 110 2.474zM51.002 26.16a1.237 1.237 0 01-1.237-1.237v-2.078a1.237 1.237 0 112.475 0v2.078c0 .684-.554 1.238-1.238 1.238zM52.417 29.215h-2.83a1.237 1.237 0 110-2.474h2.83a1.237 1.237 0 110 2.474zM61.69 29.098a3.766 3.766 0 01-2.843-1.269 1.238 1.238 0 011.864-1.628c.235.268.592.422.98.422s.745-.154.98-.423a1.238 1.238 0 011.863 1.629 3.765 3.765 0 01-2.843 1.269z"/><path fill="#3A484A" d="M80.783 15.607C79.406-1.157 72.647 1.425 61.693 1.425c-8.283 0-12.26-.83-13.954-1.358a1.451 1.451 0 00-1.73.726c-1.352 2.654-4.37 9.835-4.37 21.08 0 0 4.796-8.636 20.052-8.636 7.098 0 6.504 2.37 19.092 2.37z"/><path fill="#323E40" d="M49.97.793c.031-.062.067-.12.106-.174a19.991 19.991 0 01-2.337-.552 1.451 1.451 0 00-1.73.726c-1.352 2.654-4.37 9.835-4.37 21.08 0 0 1.148-2.065 4.104-4.175.613-8.858 3.05-14.596 4.227-16.905z"/><path fill="#3A484A" d="M.495 60.76v13.182a6.446 6.446 0 005.734 6.406l9.474 1.054L.495 60.759zM40.569 60.76v13.182a6.446 6.446 0 01-5.733 6.406l-9.475 1.054 15.208-20.643z"/><path fill="#FFCBB9" d="M40.569 60.76l-.001.001-20.48-15.483L.496 60.76l-.002-.002c-.01.264-.015.526-.015.792C.48 72.845 9.457 82 20.532 82s20.052-9.155 20.052-20.45c0-.264-.005-.527-.015-.79z"/><path fill="#FFC3AE" d="M3.812 60.108c-1.083.303-2.191.529-3.315.653l-.002-.002c-.01.264-.015.526-.015.792C.48 72.845 9.457 82 20.532 82c.572 0 1.139-.026 1.698-.074-9.957-.91-17.866-10.23-18.418-21.818z"/><path fill="#FFCBB9" d="M9.843 65.838a1.237 1.237 0 01-1.237-1.237v-2.079a1.238 1.238 0 012.475 0V64.6c0 .684-.554 1.238-1.238 1.238zM11.258 68.893h-2.83a1.237 1.237 0 110-2.475h2.83a1.237 1.237 0 110 2.475zM31.221 65.838a1.237 1.237 0 01-1.237-1.237v-2.079a1.238 1.238 0 012.474 0V64.6c0 .684-.553 1.238-1.237 1.238zM32.636 68.893h-2.83a1.237 1.237 0 110-2.475h2.83a1.237 1.237 0 110 2.475zM20.532 68.776a3.764 3.764 0 01-2.843-1.27 1.238 1.238 0 011.863-1.628c.235.269.592.423.98.423s.746-.154.98-.423a1.238 1.238 0 011.864 1.63 3.767 3.767 0 01-2.844 1.268z"/><path fill="#3A484A" d="M.495 60.76l.002.001c10.761-1.19 20.035-11.585 20.035-11.585s9.274 10.395 20.036 11.585l.001-.002c-.407-10.927-9.222-19.656-20.037-19.656S.902 49.833.495 60.759z"/><path fill="#323E40" d="M22.265 41.18a19.816 19.816 0 00-1.733-.077C9.717 41.103.902 49.833.495 60.76l.002.001a18.727 18.727 0 003.315-.653c.71-10.011 8.671-18.075 18.453-18.928z"/><path fill="#747474" d="M32.95 27.873v-12.36a7.995 7.995 0 00-7.995-7.995H8.475A7.995 7.995 0 00.48 15.513V26.81a7.995 7.995 0 007.996 7.994H36.78l-3.83-6.93zM49.273 68.264v-12.36a7.995 7.995 0 017.995-7.995h16.48a7.995 7.995 0 017.995 7.994V67.2a7.996 7.996 0 01-7.995 7.995H45.444l3.83-6.93z"/><path fill="#FFC500" d="M70.669 61.498a3.114 3.114 0 00-1.093-1.04 3.021 3.021 0 00-1.44-.393 3.726 3.726 0 00-.084-.665.659.659 0 00-.28-.417.626.626 0 00-.715.024.646.646 0 00-.253.435.667.667 0 00.016.258c.028.129.046.26.052.39-.707.09-1.4.27-2.063.535.014-.782.049-1.565.125-2.344l.024-.249a20.685 20.685 0 002.205-.432l.076-.02a.624.624 0 00.408-.29.658.658 0 00.08-.502.659.659 0 00-.3-.407.623.623 0 00-.492-.062l-.077.02c-.584.15-1.176.263-1.77.358l.096-.982a.662.662 0 00-.33-.638.621.621 0 00-.701.07.655.655 0 00-.23.438l-.124 1.274a19.61 19.61 0 01-1.78.091.625.625 0 00-.447.19.659.659 0 000 .92c.119.121.28.19.448.19.55 0 1.102-.03 1.651-.074a31.095 31.095 0 00-.128 3.054c-.085.047-.171.092-.256.143-.43.253-.843.537-1.234.851l-.014.012a8.831 8.831 0 00-1.678 1.755 1.992 1.992 0 00-.072 2.178c.2.33.492.59.837.748a1.86 1.86 0 001.102.142 6.068 6.068 0 001.797-.66c.078.127.196.221.335.268a.616.616 0 00.424-.01.636.636 0 00.322-.285.662.662 0 00.073-.43c-.016-.094-.023-.188-.037-.283.293-.232.57-.483.832-.751a8.542 8.542 0 001.331-1.775c.015-.025.027-.05.041-.076.075-.137.146-.275.21-.413a6.872 6.872 0 00.304-.761c.021-.063.039-.124.058-.187.031-.11.064-.219.09-.327l.002-.012c.303-.005.603.065.875.203.271.138.507.34.687.59.646 1.148-.61 3.235-2.798 4.65a.64.64 0 00-.28.406.667.667 0 00.082.49.644.644 0 00.396.288.616.616 0 00.478-.084c2.85-1.844 4.234-4.595 3.218-6.402zm-8.663 4.28a.623.623 0 01-.365-.05.642.642 0 01-.277-.249.667.667 0 01.021-.723 7.637 7.637 0 011.451-1.51l.017-.014a8.85 8.85 0 01.725-.515c.038.776.11 1.55.207 2.323a5.112 5.112 0 01-1.78.739zm4.643-4.278a5.37 5.37 0 01-.314.74 6.817 6.817 0 01-.365.631c-.261.402-.56.776-.892 1.118-.044.045-.09.086-.136.13a29.77 29.77 0 01-.133-2.081 7.777 7.777 0 011.862-.607l-.022.069z"/></g><path fill="#FFC500" d="M16.762 14a3.35 3.35 0 00-3.333 3.333c0 .886.361 1.696.952 2.296A5.23 5.23 0 0012 24a5.247 5.247 0 005.238 5.238A9.437 9.437 0 0022 27.962l-.952-1.648a7.66 7.66 0 01-3.81 1.02A3.319 3.319 0 0113.905 24a3.323 3.323 0 012.466-3.219l4.962-1.333-.495-1.838-4.238 1.152a1.441 1.441 0 01-1.267-1.429c0-.8.629-1.428 1.429-1.428.247 0 .476.066.714.19l.953-1.647A3.314 3.314 0 0016.762 14z"/><defs><clipPath id="clip0"><path fill="#fff" d="M0 0h82v82H0z"/></clipPath></defs></svg>