<svg xmlns="http://www.w3.org/2000/svg" xmlns:xlink="http://www.w3.org/1999/xlink" id="Layer_1" x="0" y="0" enable-background="new 0 0 283.46 283.46" version="1.1" viewBox="0 0 283.46 283.46" xml:space="preserve"><style>.st0{clip-path:url(#SVGID_2_)}.st12{clip-path:url(#SVGID_26_);fill:#fff}.st18,.st19{clip-path:url(#SVGID_38_)}.st18{fill:none;stroke:#fff200;stroke-width:.6667;stroke-miterlimit:10}.st19{fill:#fff}</style><g><defs><path id="SVGID_1_" d="M0 0h283.46v283.46H0z"/></defs><clipPath id="SVGID_2_"><use overflow="visible" xlink:href="#SVGID_1_"/></clipPath><g class="st0"><defs><path id="SVGID_3_" d="M68.39 26.25c-10.58 0-19.16 8.58-19.16 19.16V237.7c0 10.58 8.58 19.16 19.16 19.16h146.75c10.58 0 19.16-8.58 19.16-19.16V45.41c0-10.58-8.58-19.16-19.16-19.16H68.39z"/></defs><clipPath id="SVGID_4_"><use overflow="visible" xlink:href="#SVGID_3_"/></clipPath><linearGradient id="SVGID_5_" x1="-70.699" x2="-70.032" y1="354.332" y2="354.332" gradientTransform="scale(345.9036) rotate(-90 142.393 -212.35)" gradientUnits="userSpaceOnUse"><stop offset="0" stop-color="#fff200"/><stop offset=".369" stop-color="#fff001"/><stop offset=".563" stop-color="#fee803"/><stop offset=".717" stop-color="#fdda08"/><stop offset=".849" stop-color="#fcc70f"/><stop offset=".966" stop-color="#fbaf17"/><stop offset="1" stop-color="#faa61a"/><stop offset="1" stop-color="#231f20"/></linearGradient><path fill="url(#SVGID_5_)" d="M49.24 26.25H234.3v230.6H49.24z" clip-path="url(#SVGID_4_)"/></g><g class="st0"><defs><path id="SVGID_6_" d="M0 0h283.46v283.46H0z"/></defs><clipPath id="SVGID_7_"><use overflow="visible" xlink:href="#SVGID_6_"/></clipPath><path fill="none" stroke="#fff200" stroke-miterlimit="10" stroke-width=".667" d="M215.14 256.85H68.39c-10.58 0-19.16-8.58-19.16-19.16V45.41c0-10.58 8.58-19.16 19.16-19.16h146.75c10.58 0 19.16 8.58 19.16 19.16V237.7c0 10.57-8.58 19.15-19.16 19.15z" clip-path="url(#SVGID_7_)"/></g><g class="st0"><defs><path id="SVGID_8_" d="M81.76 221.99c-3.49.74-6.85 1.55-10.1 2.41-6.04 1.61-11.65 3.42-16.73 5.41v5.67c0 9.41 7.63 17.03 17.03 17.03h139.61c9.41 0 17.04-7.63 17.04-17.03v-5.64c-5.11-1.99-10.74-3.82-16.81-5.43-3.25-.87-6.61-1.67-10.1-2.41-17.59-3.75-38.09-5.9-59.97-5.9-21.88-.01-42.38 2.14-59.97 5.89"/></defs><clipPath id="SVGID_9_"><use overflow="visible" xlink:href="#SVGID_8_"/></clipPath><linearGradient id="SVGID_10_" x1="-69.846" x2="-69.18" y1="354.338" y2="354.338" gradientTransform="matrix(0 -54.6299 -54.6299 0 19499.203 -3563.178)" gradientUnits="userSpaceOnUse"><stop offset="0" stop-color="#78b83e"/><stop offset=".062" stop-color="#6aaa3b"/><stop offset=".227" stop-color="#4c8b33"/><stop offset=".398" stop-color="#34722d"/><stop offset=".578" stop-color="#226128"/><stop offset=".771" stop-color="#185626"/><stop offset="1" stop-color="#155325"/><stop offset="1" stop-color="#155325"/></linearGradient><path fill="url(#SVGID_10_)" d="M54.93 216.09h173.69v36.42H54.93z" clip-path="url(#SVGID_9_)"/></g><g class="st0"><defs><path id="SVGID_11_" d="M0 0h283.46v283.46H0z"/></defs><clipPath id="SVGID_12_"><use overflow="visible" xlink:href="#SVGID_11_"/></clipPath><path fill="none" stroke="#fff200" stroke-miterlimit="10" stroke-width=".667" d="M228.61 229.84v5.64c0 9.41-7.63 17.03-17.04 17.03H71.96c-9.41 0-17.03-7.63-17.03-17.03v-5.67c5.09-1.99 10.69-3.8 16.73-5.41 3.25-.87 6.61-1.67 10.1-2.41 17.59-3.75 38.09-5.9 59.97-5.9 21.89 0 42.39 2.15 59.97 5.9 3.49.74 6.85 1.55 10.1 2.41 6.07 1.62 11.71 3.45 16.81 5.44z" clip-path="url(#SVGID_12_)"/></g><g class="st0"><defs><path id="SVGID_13_" d="M54.93 161.19v64.15c2.69-1.05 5.52-2.05 8.49-2.99 2.65-.85 5.4-1.65 8.25-2.41 19.61-5.23 43.85-8.31 70.07-8.31 26.23 0 50.46 3.09 70.07 8.31 2.85.76 5.6 1.56 8.25 2.41 2.99.95 5.85 1.96 8.56 3.02v-64.15c-21.61-8.45-52.54-13.75-86.88-13.75-34.31 0-65.21 5.28-86.81 13.72"/></defs><clipPath id="SVGID_14_"><use overflow="visible" xlink:href="#SVGID_13_"/></clipPath><linearGradient id="SVGID_15_" x1="-70.51" x2="-69.844" y1="354.328" y2="354.328" gradientTransform="matrix(0 -116.84 -116.84 0 41541.5 -8013.05)" gradientUnits="userSpaceOnUse"><stop offset="0" stop-color="#58aff6"/><stop offset="1" stop-color="#0470a2"/></linearGradient><path fill="url(#SVGID_15_)" d="M54.93 147.47h173.69v77.89H54.93z" clip-path="url(#SVGID_14_)"/></g><g class="st0"><defs><path id="SVGID_16_" d="M0 0h283.46v283.46H0z"/></defs><clipPath id="SVGID_17_"><use overflow="visible" xlink:href="#SVGID_16_"/></clipPath><path fill="none" stroke="#fff200" stroke-miterlimit="10" stroke-width=".667" d="M228.61 161.21v64.15a139.48 139.48 0 00-8.56-3.02c-2.65-.85-5.4-1.65-8.25-2.41-19.61-5.23-43.85-8.31-70.07-8.31-26.23 0-50.46 3.09-70.07 8.31-2.85.76-5.6 1.56-8.25 2.41-2.97.94-5.79 1.95-8.49 2.99v-64.15c21.61-8.44 52.5-13.72 86.81-13.72 34.34.01 65.27 5.3 86.88 13.75z" clip-path="url(#SVGID_17_)"/></g><g class="st0"><defs><path id="SVGID_18_" d="M71.96 30.59c-9.41 0-17.03 7.63-17.03 17.03v108.41c7.61-2.97 16.37-5.55 26.02-7.64.63-.14 1.26-.27 1.89-.41.14-.03.28-.05.42-.09 2.33-.48 4.71-.93 7.13-1.35 1.4-.25 2.81-.48 4.24-.71.43-.07.87-.13 1.31-.2.32-.05.65-.1.98-.15.52-.07 1.04-.15 1.57-.23.07-.01.14-.01.21-.03.27-.03.54-.07.82-.11.09-.01.17-.03.27-.03.74-.11 1.48-.21 2.23-.3.75-.1 1.51-.19 2.27-.29.9-.11 1.8-.21 2.71-.31.03-.01.07-.01.11-.01l2.27-.24c2.19-.23 4.41-.43 6.65-.61 1.49-.12 3.01-.23 4.53-.33.27-.02.53-.03.8-.05.03 0 .07-.01.1-.01 6.59-.41 13.37-.63 20.28-.63 6.91 0 13.69.21 20.27.63.91.05 1.82.12 2.73.18 3.16.23 6.27.49 9.34.81.07.01.14.01.21.02.47.05.94.09 1.41.15.38.04.76.08 1.14.13l.3.03c.48.05.95.11 1.43.16.05.01.1.01.15.02.23.03.46.05.69.09.7.08 1.39.17 2.09.26.01 0 .03.01.05.01.79.1 1.57.2 2.35.31.82.11 1.63.23 2.43.35l1.45.21a257.22 257.22 0 0111.59 2.05c1.06.21 2.11.43 3.14.65 9.69 2.11 18.47 4.7 26.1 7.68V47.62c0-9.41-7.63-17.03-17.04-17.03H71.96z"/></defs><clipPath id="SVGID_19_"><use overflow="visible" xlink:href="#SVGID_18_"/></clipPath><defs><filter id="Adobe_OpacityMaskFilter" width="173.69" height="125.47" x="54.93" y="30.59" filterUnits="userSpaceOnUse"><feColorMatrix values="1 0 0 0 0 0 1 0 0 0 0 0 1 0 0 0 0 0 1 0"/></filter></defs><mask id="SVGID_20_" width="173.69" height="125.47" x="54.93" y="30.59" maskUnits="userSpaceOnUse"><g filter="url(#Adobe_OpacityMaskFilter)"><linearGradient id="SVGID_21_" x1="-70.83" x2="-70.163" y1="354.329" y2="354.329" gradientTransform="matrix(0 -188.21 -188.21 0 66829.977 -13174.8)" gradientUnits="userSpaceOnUse"><stop offset="0" stop-color="#fafafa"/><stop offset="1" stop-color="#fff"/></linearGradient><path fill="url(#SVGID_21_)" d="M54.93 30.59h173.69v125.47H54.93z" clip-path="url(#SVGID_19_)"/></g></mask><linearGradient id="SVGID_22_" x1="-70.83" x2="-70.163" y1="354.329" y2="354.329" gradientTransform="matrix(0 -188.21 -188.21 0 66829.977 -13174.8)" gradientUnits="userSpaceOnUse"><stop offset="0" stop-color="#77c7f8"/><stop offset=".155" stop-color="#71c4f6"/><stop offset=".352" stop-color="#62bbf2"/><stop offset=".571" stop-color="#48acea"/><stop offset=".805" stop-color="#2498df"/><stop offset="1" stop-color="#0084d5"/></linearGradient><path fill="url(#SVGID_22_)" d="M54.93 30.59h173.69v125.47H54.93z" clip-path="url(#SVGID_19_)" mask="url(#SVGID_20_)"/></g><g class="st0"><defs><path id="SVGID_23_" d="M0 0h283.46v283.46H0z"/></defs><clipPath id="SVGID_24_"><use overflow="visible" xlink:href="#SVGID_23_"/></clipPath><path fill="none" stroke="#fff200" stroke-miterlimit="10" stroke-width=".667" d="M228.61 47.62v108.44c-7.63-2.98-16.41-5.57-26.1-7.68-1.03-.23-2.08-.45-3.14-.65-.8-.17-1.6-.32-2.41-.47-2.99-.57-6.05-1.1-9.18-1.58-.48-.07-.96-.15-1.45-.21-.8-.12-1.61-.23-2.43-.35-.78-.11-1.56-.21-2.35-.31-.01 0-.03-.01-.05-.01-.69-.09-1.39-.18-2.09-.26l-.69-.09c-.05-.01-.1-.01-.15-.02-.48-.05-.95-.11-1.43-.16-.1-.01-.2-.03-.3-.03-.38-.05-.76-.09-1.14-.13l-1.41-.15c-.07-.01-.14-.01-.21-.02-3.07-.32-6.18-.59-9.34-.81-.91-.06-1.81-.13-2.73-.18-6.59-.42-13.36-.63-20.27-.63s-13.69.21-20.28.63c-.03 0-.07.01-.1.01-.27.02-.53.03-.8.05-1.52.1-3.03.21-4.53.33-2.25.18-4.47.38-6.65.61l-2.27.24c-.03.01-.07.01-.11.01-.91.1-1.81.21-2.71.31-.77.09-1.52.19-2.27.29-.75.09-1.49.19-2.23.3l-.27.03c-.28.04-.55.08-.82.11l-.21.03c-.53.08-1.05.16-1.57.23-.33.05-.66.09-.98.15-.44.07-.87.13-1.31.2-1.43.23-2.84.46-4.24.71-2.42.42-4.8.87-7.13 1.35l-.42.09c-.63.13-1.27.27-1.89.41-9.65 2.09-18.41 4.67-26.02 7.64V47.62c0-9.41 7.63-17.03 17.03-17.03h139.61c9.41 0 17.04 7.62 17.04 17.03z" clip-path="url(#SVGID_24_)"/><g clip-path="url(#SVGID_24_)" opacity=".3"><g><defs><path id="SVGID_25_" d="M54.93 30.59h173.69v111.4H54.93z"/></defs><clipPath id="SVGID_26_"><use overflow="visible" xlink:href="#SVGID_25_"/></clipPath><path d="M147.77 30.59l-2.08 42.3-3.96-2.52-3.95 2.52-2.08-42.3zM125.59 80.65l-6.36 4.06-17.74-54.12h12.98zM109.17 91.12l-5.81 3.7-40.43-61.64c2.61-1.65 5.71-2.59 9.03-2.59h5.52l31.69 60.53zM92.95 101.45l-6.14 3.9L54.93 77.5V60.99zM75.53 112.54l-7.54 4.81-13.06-6.38V99.85zM80.95 119.07v4.6l-9.44-4.6zM80.95 135.67v6.32l-26.02-4.86v-9.02zM181.97 30.59l-17.74 54.12-6.36-4.06 11.12-50.06zM220.55 33.15L180.1 94.82l-5.81-3.7 31.69-60.53h5.59c3.3 0 6.38.93 8.98 2.56M228.61 60.91v16.52l-31.96 27.92-6.14-3.9zM228.61 99.8v11.13l-13.14 6.42-7.54-4.8zM228.61 128.09v9.03l-26.1 4.87v-6.31zM211.95 119.07l-9.44 4.6v-4.6z" class="st12"/></g></g></g><g class="st0"><defs><path id="SVGID_27_" d="M137.78 72.89l-12.19 7.76-6.36 4.05-10.07 6.41-5.81 3.7-10.41 6.63-6.14 3.91-11.28 7.19-7.55 4.81-2.7 1.72h15.66v29.33c.63-.14 1.26-.27 1.89-.41.14-.03.28-.05.42-.09 2.33-.48 4.71-.93 7.13-1.35 1.4-.25 2.81-.48 4.24-.71.43-.07.87-.13 1.31-.2.32-.05.65-.1.98-.15.52-.07 1.04-.15 1.57-.23.07-.01.14-.01.21-.03.27-.03.54-.07.82-.11.09-.01.17-.03.27-.03.74-.11 1.48-.21 2.23-.3.75-.1 1.51-.19 2.27-.29.9-.11 1.8-.21 2.71-.31.03-.01.07-.01.11-.01l2.27-.24c2.19-.23 4.41-.43 6.65-.61 1.49-.12 3.01-.23 4.53-.33.27-.02.53-.03.8-.05.03 0 .07-.01.1-.01v-12.81l3.64-2.17 2.56-1.53 4.4-2.63 2.75-1.64 5.24-3.12 1.69-1.01 1.69 1.01 5.23 3.12 2.76 1.64 4.4 2.63 2.56 1.53 3.63 2.17v12.82c.91.05 1.82.12 2.73.18 3.16.23 6.27.49 9.34.81.07.01.14.01.21.02.47.05.94.09 1.41.15.38.04.76.08 1.14.13l.3.03c.48.05.95.11 1.43.16.05.01.1.01.15.02.23.03.46.05.69.09.7.08 1.39.17 2.09.26.01 0 .03.01.05.01.79.1 1.57.2 2.35.31.82.11 1.63.23 2.43.35l1.45.21a257.22 257.22 0 0111.59 2.05c1.06.21 2.11.43 3.14.65v-29.31h15.66l-2.7-1.72-7.54-4.8-11.28-7.19-6.14-3.91-10.41-6.63-5.81-3.7-10.07-6.41-6.35-4.05-12.19-7.76-3.95-2.52-3.93 2.51z"/></defs><clipPath id="SVGID_28_"><use overflow="visible" xlink:href="#SVGID_27_"/></clipPath><linearGradient id="SVGID_29_" x1="-70.84" x2="-70.174" y1="354.329" y2="354.329" gradientTransform="matrix(0 -117.03 -117.03 0 41608.805 -8142.036)" gradientUnits="userSpaceOnUse"><stop offset="0" stop-color="#feea03"/><stop offset="0" stop-color="#feea03"/><stop offset=".344" stop-color="#fee704"/><stop offset=".553" stop-color="#fddf07"/><stop offset=".726" stop-color="#fdd10c"/><stop offset=".878" stop-color="#fbbc12"/><stop offset="1" stop-color="#faa61a"/></linearGradient><path fill="url(#SVGID_29_)" d="M65.29 70.37h152.89v78.02H65.29z" clip-path="url(#SVGID_28_)"/></g><g class="st0"><defs><path id="SVGID_30_" d="M0 0h283.46v283.46H0z"/></defs><clipPath id="SVGID_31_"><use overflow="visible" xlink:href="#SVGID_30_"/></clipPath><path fill="none" stroke="#fff200" stroke-miterlimit="10" stroke-width=".667" d="M218.17 119.07h-15.66v29.31c-1.03-.23-2.08-.45-3.14-.65-.8-.17-1.6-.32-2.41-.47-2.99-.57-6.05-1.1-9.18-1.58-.48-.07-.96-.15-1.45-.21-.8-.12-1.61-.23-2.43-.35-.78-.11-1.56-.21-2.35-.31-.01 0-.03-.01-.05-.01-.69-.09-1.39-.18-2.09-.26l-.69-.09c-.05-.01-.1-.01-.15-.02-.48-.05-.95-.11-1.43-.16-.1-.01-.2-.03-.3-.03-.38-.05-.76-.09-1.14-.13l-1.41-.15c-.07-.01-.14-.01-.21-.02-3.07-.32-6.18-.59-9.34-.81-.91-.06-1.81-.13-2.73-.18v-12.82l-3.63-2.17-2.56-1.53-4.4-2.63-2.76-1.64-5.23-3.12-1.69-1.01-1.69 1.01-5.24 3.12-2.75 1.64-4.4 2.63-2.56 1.53-3.64 2.17v12.81c-.03 0-.07.01-.1.01-.27.02-.53.03-.8.05-1.52.1-3.03.21-4.53.33-2.25.18-4.47.38-6.65.61l-2.27.24c-.03.01-.07.01-.11.01-.91.1-1.81.21-2.71.31-.77.09-1.52.19-2.27.29-.75.09-1.49.19-2.23.3l-.27.03c-.28.04-.55.08-.82.11l-.21.03c-.53.08-1.05.16-1.57.23-.33.05-.66.09-.98.15-.44.07-.87.13-1.31.2-1.43.23-2.84.46-4.24.71-2.42.42-4.8.87-7.13 1.35l-.42.09c-.63.13-1.27.27-1.89.41v-29.33H65.29l2.7-1.72 7.55-4.81 11.28-7.19 6.14-3.91 10.41-6.63 5.81-3.7 10.07-6.41 6.36-4.05 12.19-7.76 3.95-2.52 3.95 2.52 12.19 7.76 6.35 4.05 10.07 6.41 5.81 3.7 10.41 6.63 6.14 3.91 11.28 7.19 7.54 4.8 2.68 1.73z" clip-path="url(#SVGID_31_)"/></g><g class="st0"><defs><path id="SVGID_32_" d="M121.45 130.13v12.81c6.59-.41 13.37-.63 20.28-.63 6.91 0 13.69.21 20.27.63v-12.82l-20.27-12.09-20.28 12.1z"/></defs><clipPath id="SVGID_33_"><use overflow="visible" xlink:href="#SVGID_32_"/></clipPath><defs><filter id="Adobe_OpacityMaskFilter_1_" width="40.55" height="24.91" x="121.45" y="118.04" filterUnits="userSpaceOnUse"><feColorMatrix values="1 0 0 0 0 0 1 0 0 0 0 0 1 0 0 0 0 0 1 0"/></filter></defs><mask id="SVGID_34_" width="40.55" height="24.91" x="121.45" y="118.04" maskUnits="userSpaceOnUse"><g filter="url(#Adobe_OpacityMaskFilter_1_)"><linearGradient id="SVGID_35_" x1="-70.698" x2="-70.031" y1="354.425" y2="354.425" gradientTransform="matrix(-60.83 0 0 60.83 -4138.55 -21429.184)" gradientUnits="userSpaceOnUse"><stop offset="0" stop-color="#fafafa"/><stop offset="1" stop-color="#fff"/></linearGradient><path fill="url(#SVGID_35_)" d="M121.45 118.04H162v24.91h-40.55z" clip-path="url(#SVGID_33_)"/></g></mask><linearGradient id="SVGID_36_" x1="-70.697" x2="-70.031" y1="354.425" y2="354.425" gradientTransform="matrix(-60.83 0 0 60.83 -4138.519 -21429.205)" gradientUnits="userSpaceOnUse"><stop offset="0" stop-color="#77c7f8"/><stop offset=".155" stop-color="#71c4f6"/><stop offset=".352" stop-color="#62bbf2"/><stop offset=".571" stop-color="#48acea"/><stop offset=".805" stop-color="#2498df"/><stop offset="1" stop-color="#0084d5"/></linearGradient><path fill="url(#SVGID_36_)" d="M121.45 118.04H162v24.91h-40.55z" clip-path="url(#SVGID_33_)" mask="url(#SVGID_34_)"/></g><g class="st0"><defs><path id="SVGID_37_" d="M0 0h283.46v283.46H0z"/></defs><clipPath id="SVGID_38_"><use overflow="visible" xlink:href="#SVGID_37_"/></clipPath><path d="M162.01 130.13v12.82c-6.59-.42-13.36-.63-20.27-.63s-13.69.21-20.28.63v-12.81l20.28-12.09 20.27 12.08z" class="st18"/><path d="M83.86 62.78c0 2.3-1.86 4.16-4.16 4.16s-4.16-1.86-4.16-4.16 1.86-4.16 4.16-4.16 4.16 1.86 4.16 4.16M201.83 62.88c0 2.3-1.86 4.16-4.16 4.16s-4.16-1.86-4.16-4.16 1.86-4.16 4.16-4.16 4.16 1.86 4.16 4.16M91.56 53.07c-.04-.17.06-.36.27-.41 2.19-.56 3.29-.82 5.49-1.32 2.21-.5 4.36.79 4.78 2.83.32 1.58-.51 3.07-1.93 4 1.36 1.52 2.02 2.29 3.34 3.83.17.2.1.5-.19.56-.92.19-1.39.29-2.31.49a.327.327 0 01-.31-.09c-1.32-1.6-2-2.4-3.36-3.99-.49.12-.73.17-1.22.29.42 1.73.63 2.6 1.05 4.34.04.17-.08.36-.25.4-.82.2-1.23.3-2.05.51a.333.333 0 01-.41-.24c-1.17-4.47-1.74-6.71-2.9-11.2m6.68 3.42c.74-.17 1.22-.95 1.06-1.67-.16-.72-.92-1.16-1.67-.99-1.08.24-1.61.37-2.69.63.26 1.06.38 1.59.64 2.65 1.07-.25 1.6-.38 2.66-.62M110.65 48.96c-.03-.17.12-.35.3-.38.91-.13 1.37-.2 2.28-.32.2-.03.37.11.4.28.37 2.79.55 4.19.92 6.98.16 1.21 1.2 2.05 2.46 1.9 1.27-.15 2.11-1.22 1.97-2.43-.3-2.8-.46-4.2-.76-7-.02-.17.11-.34.32-.37.91-.1 1.37-.14 2.29-.23.19-.02.37.12.38.3.27 2.86.4 4.29.67 7.15.25 2.63-1.78 5.02-4.54 5.35-2.74.33-5.26-1.51-5.65-4.12-.42-2.85-.63-4.27-1.04-7.11M132.69 46.45c.01-.16.18-.29.33-.29.12 0 .18 0 .3-.01.09 0 .27.06.33.17 1.83 3.01 2.71 4.52 4.4 7.56h.04c1.69-3.05 2.56-4.57 4.37-7.58.06-.1.23-.17.33-.17l.3.01c.15 0 .32.13.33.29.74 4.76 1.09 7.14 1.73 11.91.03.23-.14.38-.35.38-.84-.03-1.26-.04-2.1-.06-.16 0-.32-.15-.33-.29-.28-2.19-.42-3.28-.72-5.46h-.04c-1.27 2.27-1.88 3.4-3.08 5.69-.05.11-.21.19-.3.19h-.32c-.11 0-.25-.09-.3-.19a197.23 197.23 0 00-3.12-5.68h-.04c-.28 2.19-.41 3.28-.68 5.47-.01.14-.15.29-.33.29-.84.02-1.26.03-2.1.06-.21.01-.38-.14-.35-.37.64-4.78.97-7.16 1.7-11.92M152.53 58.37c2.53-4.4 3.86-6.57 6.65-10.88.07-.1.2-.17.33-.15.07.01.11.01.18.02.13.01.25.11.29.22 1.75 4.82 2.56 7.25 4.04 12.1.07.23-.1.43-.35.4-.76-.11-1.14-.16-1.9-.26-.31-.04-.43-.16-.54-.5l-.45-1.42c-1.88-.24-2.82-.34-4.7-.54-.3.52-.46.78-.76 1.3-.11.2-.31.38-.66.35-.76-.07-1.13-.11-1.89-.17-.25-.02-.36-.26-.24-.47m7.5-2.9c-.4-1.18-.6-1.77-1.01-2.95H159a189.4 189.4 0 00-1.63 2.65c1.06.11 1.59.17 2.66.3M174.32 50.36c.03-.17.23-.29.41-.25.87.17 1.31.26 2.18.45.2.04.31.23.28.4-.37 1.71-.55 2.56-.91 4.27 2.04.44 3.06.67 5.09 1.16.41-1.7.62-2.55 1.02-4.24.04-.17.22-.28.42-.24.87.21 1.3.32 2.16.54.18.05.31.24.26.41-1.14 4.44-1.71 6.66-2.85 11.11-.04.17-.24.28-.41.24-.81-.21-1.22-.31-2.03-.51a.335.335 0 01-.25-.4c.43-1.77.64-2.66 1.07-4.43-2.01-.48-3.01-.71-5.03-1.15l-.95 4.45c-.04.17-.21.29-.4.25-.82-.17-1.23-.26-2.05-.42a.337.337 0 01-.26-.39l2.25-11.25M72.03 232.56c0-.15.13-.28.28-.28h1.82c.16 0 .28.13.28.28v6.01c0 1.04.77 1.87 1.82 1.87 1.07 0 1.85-.83 1.85-1.87v-6.01c0-.15.12-.28.28-.28h1.82c.15 0 .28.13.28.28v6.13c0 2.25-1.9 4.12-4.24 4.12-2.33 0-4.21-1.87-4.21-4.12v-6.13zM82.86 232.39c0-.15.13-.27.28-.27h.37l5.92 5.7h.02v-5.27c0-.15.12-.28.28-.28h1.78c.15 0 .28.13.28.28v9.98c0 .15-.13.27-.28.27h-.24c-.04 0-.16-.04-.19-.07l-5.86-5.89h-.02v5.53c0 .15-.12.28-.28.28h-1.76c-.15 0-.28-.13-.28-.28l-.02-9.98zM95.67 234.46h-2.12a.28.28 0 01-.28-.28v-1.62c0-.15.12-.28.28-.28h6.58c.16 0 .28.13.28.28v1.62c0 .15-.12.28-.28.28h-2.12v7.92c0 .15-.13.28-.28.28h-1.78c-.15 0-.28-.13-.28-.28v-7.92zM101.75 232.56c0-.15.13-.28.28-.28h1.82c.16 0 .28.13.28.28v6.01c0 1.04.77 1.87 1.82 1.87 1.07 0 1.85-.83 1.85-1.87v-6.01c0-.15.12-.28.28-.28h1.82c.15 0 .28.13.28.28v6.13c0 2.25-1.9 4.12-4.24 4.12-2.33 0-4.21-1.87-4.21-4.12v-6.13zM112.6 232.63c0-.19.15-.36.36-.36h1.74c.19 0 .36.16.36.36v3.9l3.29-4.11c.06-.07.19-.15.28-.15h1.87c.28 0 .43.33.27.55l-3.47 4.35 3.78 4.92c.16.22 0 .55-.28.55h-2.05c-.1 0-.24-.06-.27-.1l-3.43-4.66v4.42c0 .19-.16.36-.36.36h-1.74c-.21 0-.36-.16-.36-.36v-9.67zM124.52 242.27l4.64-9.98c.04-.09.15-.16.25-.16h.15c.1 0 .21.07.25.16l4.64 9.98c.09.19-.03.39-.25.39h-1.65c-.27 0-.39-.09-.52-.37l-.53-1.17h-4.03l-.53 1.19a.55.55 0 01-.53.36h-1.63c-.23-.01-.34-.2-.26-.4m6.1-3.17l-1.13-2.45h-.01l-1.11 2.45h2.25zM135.67 232.39c0-.15.13-.27.28-.27h.37l5.92 5.7h.02v-5.27c0-.15.12-.28.28-.28h1.78c.15 0 .28.13.28.28v9.98c0 .15-.13.27-.28.27h-.24c-.04 0-.16-.04-.19-.07l-5.86-5.89h-.01v5.53c0 .15-.12.28-.28.28h-1.76c-.15 0-.28-.13-.28-.28l-.03-9.98zM145.81 242.27l4.64-9.98c.04-.09.15-.16.25-.16h.15c.1 0 .21.07.25.16l4.64 9.98c.09.19-.03.39-.25.39h-1.65c-.27 0-.39-.09-.52-.37l-.53-1.17h-4.03l-.53 1.19a.55.55 0 01-.53.36h-1.63c-.23-.01-.35-.2-.26-.4m6.1-3.17l-1.13-2.45h-.01l-1.11 2.45h2.25zM156.97 232.63c0-.19.15-.36.36-.36h1.74c.19 0 .36.16.36.36v3.9l3.29-4.11c.06-.07.19-.15.28-.15h1.87c.28 0 .43.33.27.55l-3.47 4.35 3.78 4.92c.16.22 0 .55-.28.55h-2.05c-.1 0-.24-.06-.27-.1l-3.43-4.66v4.42c0 .19-.16.36-.36.36h-1.74c-.21 0-.36-.16-.36-.36v-9.67zM171.25 232.36c.01-.13.15-.24.27-.24h.24c.07 0 .21.06.25.15l3.44 6.41h.03l3.44-6.41c.04-.09.18-.15.25-.15h.24c.12 0 .25.1.27.24l1.68 9.97c.03.19-.1.33-.28.33h-1.75c-.13 0-.27-.12-.28-.24l-.67-4.58h-.03l-2.49 4.81c-.04.09-.18.16-.25.16h-.27c-.09 0-.21-.07-.25-.16l-2.51-4.81h-.03l-.65 4.58c-.01.12-.13.24-.28.24h-1.75c-.18 0-.31-.13-.28-.33l1.66-9.97zM183.1 232.56c0-.15.13-.28.28-.28h1.82c.16 0 .28.13.28.28v6.01c0 1.04.77 1.87 1.82 1.87 1.07 0 1.85-.83 1.85-1.87v-6.01c0-.15.12-.28.28-.28h1.82c.15 0 .28.13.28.28v6.13c0 2.25-1.9 4.12-4.24 4.12-2.33 0-4.21-1.87-4.21-4.12v-6.13zM193.95 232.56c0-.15.12-.28.27-.28h3.62c2.86 0 5.21 2.33 5.21 5.18 0 2.88-2.34 5.21-5.21 5.21h-3.62c-.15 0-.27-.13-.27-.28v-9.83zm3.74 7.9c1.68 0 2.89-1.32 2.89-3.01 0-1.68-1.22-3-2.89-3h-1.42v6.01h1.42zM203.41 242.27l4.64-9.98c.04-.09.15-.16.25-.16h.15c.1 0 .21.07.25.16l4.64 9.98c.09.19-.03.39-.25.39h-1.65c-.27 0-.39-.09-.52-.37l-.53-1.17h-4.03l-.53 1.19a.55.55 0 01-.53.36h-1.63c-.23-.01-.35-.2-.26-.4m6.1-3.17l-1.13-2.45h-.01l-1.11 2.45h2.25z" class="st19"/><path fill="#001b54" d="M221.86 205.2l-9.83 14.45a198.516 198.516 0 00-11.78-2.77c-17.26-3.57-37.23-5.6-58.53-5.6-17.29 0-33.7 1.34-48.51 3.75-7.65 1.25-14.88 2.78-21.57 4.56-.02.01-.03.01-.05.01l-9.37-17.75c-.19-.31-.36-.64-.5-1.01-.07-.19-.14-.38-.2-.59-.05-.2-.11-.41-.16-.62-.04-.21-.08-.42-.11-.64-.04-.25-.08-.49-.1-.75-.04-.49-.07-1-.07-1.54v-.09c.01-1.38.01-2.08.02-3.46 2.08-.45 3.13-.66 5.21-1.07l2.16 7.42c.05-.01 1.12-.79 1.17-.8.05-.01.09-.03.13-.04 1.48-.52 2.23-1.8 2.24-3.86.01-1.61-.55-3.05-1.65-4.31-.43-.47-1.01-1.01-1.73-1.59-.79-.59-1.18-.89-1.97-1.49-.81-.6-1.47-1.13-1.97-1.59-.69-.64-1.25-1.29-1.71-1.95-.26-.39-.49-.79-.69-1.21-.03-.07-.06-.13-.09-.19-.08-.17-.15-.35-.21-.53-.11-.26-.19-.53-.27-.79-.06-.23-.11-.46-.17-.7-.05-.22-.09-.45-.11-.68a.88.88 0 01-.02-.17 5.48 5.48 0 01-.07-.73c-.02-.26-.03-.52-.03-.8v-.11c.03-5.99 2.74-9.58 8.17-10.61.78-.15 1.5-.22 2.17-.22.19 0 .38.01.57.02.11.01.21.01.31.03.23.02.45.05.67.11.1.02.2.04.29.06.02.01.05.01.07.02.11.03.21.06.31.11.09.02.17.05.24.09.07.02.13.05.19.08.13.06.26.12.38.19.05.03.1.05.14.08.1.05.19.13.29.19.09.06.17.13.25.19.1.08.19.16.28.25l.13.13c.05.05.09.1.13.15.13.14.23.28.35.44.11.15.21.32.3.49a6.83 6.83 0 01.36.79c.07.15.12.31.17.47l.03.09 2.87 7.66c.01-4.3.03-8.59.05-12.89 2.21-.36 3.32-.53 5.53-.85l4.92 15.15L93.04 164c3.26-.41 4.88-.6 8.14-.95l7.41 33.66c.01-9.86.04-24.51.05-34.37 3.29-.27 4.93-.4 8.21-.61.65-.04 1.27-.04 1.85.01.05 0 .11.01.17.01.07.01.15.01.23.03.06 0 .11.01.16.03.06.01.13.01.19.03.06.01.12.01.17.03.15.03.29.05.43.09.09.02.17.05.25.07.44.11.85.27 1.24.46.09.05.17.09.25.14.11.06.23.13.33.2.11.07.22.14.32.21.11.07.2.16.3.24.09.09.19.17.28.27.07.07.14.13.21.21.07.07.14.15.2.23.07.08.13.16.19.24.25.33.47.7.65 1.1.05.11.09.21.14.33.04.1.08.2.11.31.08.21.15.42.21.64.07.22.12.45.17.69.01.03.01.05.01.08.02.13.05.25.07.37.03.17.05.33.07.5l4.18 23.15 4.84-30.37c2.23-.05 3.34-.06 5.57-.07-.01 6.51-.01 3.4-.01 9.9 0 0 7.77-9.73 7.77-9.86 2.04.03 3.07.05 5.1.11-.03.05-.05.11-.07.17-3.03 6.16-4.56 9.3-7.62 15.57.88 2.27 2.17 5.59 2.49 6.44l6.97-22.13c6.08.21 9.12.37 15.19.81 0 2.05-.03 1.43-.03 3.48l2.71-3.27c3.36.27 5.04.43 8.4.77 5.49.56 8.25 3.67 8.26 9.15 0 1.13.01 1.69.01 2.82v.08c0 .22-.01.43-.01.64-.01.17-.01.33-.03.48-.01.13-.03.25-.04.38-.04.32-.09.61-.14.91-.03.14-.05.28-.1.42-.07.27-.16.53-.25.78-.01.05-.04.1-.06.15-.02.05-.05.09-.07.15-.02.05-.04.09-.06.14-.02.06-.05.1-.06.15-.02.06-.05.1-.07.15l-.03.06c-.61 1.13-1.51 1.91-2.72 2.35.49.26.94.58 1.33.96-.01 0-.01.01-.01.01.21.2.41.41.6.65.06.07 1.49 3.81 1.55 3.9l6.63-22.54c2.21.31 3.32.48 5.53.83.02 5.31.04 18.07.05 23.37l7.12-22.18c3.25.57 4.86.87 8.09 1.51 1.96 12.32 3.88 24.62 5.8 36.93" clip-path="url(#SVGID_38_)"/><path d="M77.6 176.77c0-.75 0-1.13.01-1.89.01-1.45-.15-2.7-.46-3.75-.01-.03-.02-.06-.03-.1-.05-.16-.1-.32-.17-.47a4.91 4.91 0 00-.28-.62c-.03-.06-.06-.12-.09-.17-.1-.17-.19-.34-.3-.49-.11-.16-.22-.3-.35-.44a.864.864 0 00-.13-.14.8.8 0 00-.13-.13c-.09-.09-.18-.17-.28-.25-.08-.07-.16-.13-.25-.19-.1-.07-.19-.14-.29-.19a.638.638 0 00-.14-.08c-.12-.07-.25-.13-.38-.19-.07-.03-.12-.06-.19-.08-.08-.04-.16-.07-.24-.09-.1-.04-.21-.08-.31-.1-.02-.01-.05-.01-.07-.02-.1-.02-.19-.04-.3-.06-.21-.06-.44-.09-.67-.11l-.31-.03c-.19-.01-.37-.02-.57-.02-.67 0-1.39.07-2.17.22-5.43 1.03-8.14 4.62-8.16 10.61v.11c0 .28.01.54.03.8.01.25.03.49.07.73 0 .05.01.12.02.17.03.23.07.46.12.68a10.671 10.671 0 00.43 1.5c.06.18.13.36.21.53.03.07.06.13.09.19.19.42.42.82.68 1.21.46.66 1.02 1.31 1.71 1.94.5.46 1.16 1 1.97 1.6.79.59 1.19.89 1.98 1.49.72.58 1.3 1.11 1.74 1.59 1.11 1.26 1.66 2.7 1.65 4.31-.01 2.06-.76 3.34-2.24 3.86-.04.02-.08.03-.13.04-.15.05-.32.09-.49.12-1.91.37-2.87-.6-2.85-2.93.01-1.47.01-2.23.01-3.65v-.17c-2.09.42-3.13.63-5.21 1.07-.01 1.38-.01 2.08-.02 3.46v.09c0 .55.02 1.06.07 1.54.02.26.06.51.1.75.04.22.08.44.12.64.05.21.1.42.16.62s.12.39.2.58c.14.37.3.7.5 1.01 0 .01.01.02.01.03 1.28 2.04 3.63 2.71 7.04 2.06 5.5-1.04 8.27-4.47 8.29-10.46.01-2.3-.55-4.28-1.67-5.95-.46-.68-1.04-1.35-1.73-2.01-.49-.48-1.14-1.03-1.96-1.64-.15-.1-.32-.23-.52-.38-.58-.45-.88-.67-1.46-1.12-.71-.57-1.29-1.09-1.73-1.57-1.12-1.26-1.68-2.7-1.67-4.31.01-2.34.94-3.71 2.79-4.06 1.85-.35 2.76.66 2.75 3.01 0 .9 0 1.35-.01 2.25 2.07-.41 3.11-.59 5.21-.95M80.05 165.9c2.21-.36 3.32-.53 5.53-.85l-.12 35.77c-2.22.33-3.33.5-5.54.85l.13-35.77zM106.77 198.29c-2.25.2-3.37.31-5.62.55l-.95-6.38c-2.73.29-4.09.45-6.82.8-.39 2.64-.59 3.96-.98 6.61-2.04.26-3.07.4-5.11.69l5.76-36.53c3.25-.41 4.88-.6 8.14-.94l5.58 35.2m-12.68-9.98c2.15-.27 3.23-.39 5.38-.63-1.06-7.12-1.59-10.67-2.64-17.78-1.1 7.36-1.64 11.04-2.74 18.41M116.86 161.76c5.54-.36 8.31 2.51 8.3 8.41v4.64c-.01 5.89-2.79 8.92-8.33 9.27-1.06.07-1.59.1-2.65.18-.01 5.38-.01 8.07-.02 13.44-2.23.16-3.34.25-5.57.44.02-11.92.05-23.84.07-35.76 3.27-.29 4.91-.41 8.2-.62m-2.66 5.29c-.01 4.85-.01 7.27-.02 12.12 1.06-.08 1.59-.11 2.65-.18 1.82-.12 2.72-1.3 2.73-3.56 0-2.15 0-3.22.01-5.36 0-2.24-.9-3.32-2.72-3.2-1.06.07-1.59.1-2.65.18M148.43 186.22c-.32-.85-.65-1.69-.98-2.54-.87-2.27-1.75-4.55-2.63-6.82 3.05-6.27 4.59-9.41 7.62-15.57.02-.06.05-.11.08-.17-2.04-.06-3.06-.08-5.1-.11-3.1 6.46-4.66 9.7-7.78 16.22 0-6.5 0-9.75.01-16.26-2.23.01-3.35.02-5.57.07v.16c-.01 11.86-.01 23.73-.02 35.6 2.23-.04 3.35-.06 5.59-.07v-11.5c.68-1.19 1.02-1.78 1.69-2.97 2.19 5.79 3.29 8.68 5.48 14.5 2.29.03 3.44.06 5.73.12-1.38-3.55-2.74-7.1-4.12-10.66M159.87 176.49c3.07.15 4.61.24 7.68.44 0 2.04 0 3.05.01 5.09-3.07-.21-4.61-.3-7.68-.44 0 4.19.01 6.28.01 10.47 3.86.18 5.79.3 9.64.58 0 2.04.01 3.07.01 5.11-6.08-.44-9.13-.61-15.22-.81l-.03-35.76c6.08.2 9.12.36 15.19.81 0 2.04.01 3.07.01 5.11-3.85-.28-5.77-.4-9.62-.58-.01 4-.01 6 0 9.98M188.92 195.32c-.01-2.2-.01-3.3-.02-5.51-.01-2.65-.54-4.72-1.61-6.2-.23-.32-.49-.62-.77-.88-.39-.38-.84-.7-1.33-.96 1.21-.44 2.12-1.22 2.72-2.34l.03-.06c.24-.45.43-.95.56-1.51.04-.14.07-.28.1-.42.06-.29.11-.59.14-.91.01-.12.03-.25.04-.38l.03-.48c.01-.21.01-.42.01-.64v-.08c0-1.13-.01-1.69-.01-2.82-.01-5.49-2.76-8.6-8.26-9.16-3.36-.35-5.04-.5-8.4-.77v.17l.06 35.59c2.23.18 3.35.28 5.57.49-.01-5.83-.01-8.74-.03-14.56.77.07 1.15.11 1.93.19 2.43.24 3.66 1.9 3.67 4.95 0 2.24.01 3.37.01 5.61 0 1.31.03 2.32.13 2.96.06.4.19.91.37 1.49 2.26.26 3.39.39 5.65.67-.38-1.04-.58-2.51-.59-4.44m-9-16.32c-.87-.08-1.31-.12-2.18-.21-.01-4.4-.01-6.6-.02-11 1.07.1 1.61.15 2.69.26 1.89.19 2.84 1.53 2.85 3.99.01 1.41.01 2.12.01 3.52 0 2.54-1.11 3.67-3.35 3.44M190.28 194.72c.26.07.58.12.96.17.38.05.58.07.96.13 2.12.28 3.18-.7 3.17-2.98l-.09-27.29c2.22.31 3.32.48 5.54.82.03 8.96.06 17.93.1 26.89.01 3.29-.79 5.55-2.39 6.79-1.31 1.01-3.16 1.35-5.54 1.03-1.18-.16-2.08-.31-2.69-.45-.01-2.04-.01-3.06-.02-5.11M221.86 205.2c-2.22-.47-3.34-.7-5.56-1.14-.39-2.67-.59-4-.99-6.67-2.71-.53-4.06-.78-6.78-1.26-.37 2.53-.56 3.79-.93 6.32-2.04-.35-3.06-.52-5.09-.85l5.49-34.83c3.24.57 4.86.87 8.09 1.51 1.92 12.3 3.85 24.61 5.77 36.92m-12.65-13.82c2.14.38 3.21.58 5.35.99l-2.75-18.59-2.6 17.6" class="st19"/><path d="M228.61 161.21v64.15a139.48 139.48 0 00-8.56-3.02c-2.65-.85-5.4-1.65-8.25-2.41-19.61-5.23-43.85-8.31-70.07-8.31-26.23 0-50.46 3.09-70.07 8.31-2.85.76-5.6 1.56-8.25 2.41-2.97.94-5.79 1.95-8.49 2.99v-64.15c21.61-8.44 52.5-13.72 86.81-13.72 34.34.01 65.27 5.3 86.88 13.75z" class="st18"/></g></g></svg>